# Blender v2.81 (sub 16) OBJ File: ''
# www.blender.org
mtllib testz.mtl
o Cube_Cube.001
v -0.801809 -1.000000 0.801809
v -1.000000 1.000000 1.000000
v -0.801809 -1.000000 -0.801809
v -1.000000 1.000000 -1.000000
v 0.801809 -1.000000 0.801809
v 1.000000 1.000000 1.000000
v 0.801809 -1.000000 -0.801809
v 1.000000 1.000000 -1.000000
v -1.000000 -1.000000 -1.000000
v -1.000000 -1.000000 1.000000
v 1.000000 -1.000000 -1.000000
v 1.000000 -1.000000 1.000000
v -0.655055 -3.475510 -0.655055
v -0.655055 -3.475510 0.655055
v 0.655055 -3.475510 -0.655055
v 0.655055 -3.475510 0.655055
v -0.801809 -3.475510 -0.801809
v -0.801809 -3.475510 0.801809
v 0.801809 -3.475510 -0.801809
v 0.801809 -3.475510 0.801809
v -0.655055 -3.475510 0.000000
v 0.000000 -3.475510 -0.655055
v 0.655055 -3.475510 0.000000
v 0.000000 -3.475510 0.655055
v 0.000000 -3.475510 0.000000
v -0.655055 -3.475510 0.327527
v -0.327527 -3.475510 -0.655055
v 0.655055 -3.475510 -0.327527
v 0.327527 -3.475510 0.655055
v -0.655055 -3.475510 -0.327527
v 0.327527 -3.475510 -0.655055
v 0.655055 -3.475510 0.327527
v -0.327527 -3.475510 0.655055
v 0.327527 -7.475511 -1.655055
v -0.327527 -3.475510 0.000000
v 0.327527 -3.475510 0.000000
v 0.327527 -3.475510 -0.327527
v -0.327527 -3.475510 -0.327527
v -0.327527 -3.475510 0.327527
v 0.327527 -3.475510 0.327527
v 0.000000 -1.000000 0.801809
v 0.000000 -3.475510 0.801809
v -0.801809 -2.237755 0.801809
v 0.801809 -2.237755 0.801809
v 0.000000 -2.237755 0.801809
v 0.400904 -1.000000 0.801809
v 0.400904 -3.475510 0.801809
v -0.801809 -2.856633 0.801809
v 0.801809 -1.618878 0.801809
v -0.400904 -1.000000 0.801809
v -0.400904 -3.475510 0.801809
v -0.801809 -1.618878 0.801809
v 0.801809 -2.856633 0.801809
v 0.000000 -2.856633 0.801809
v 0.400904 -1.000000 -6.121769
v 0.400904 -2.237755 0.801809
v -0.400904 -2.237755 0.801809
v -0.400904 -1.618878 0.801809
v 0.400904 -1.618878 0.801809
v 0.400904 -2.856633 0.801809
v -0.400904 -2.856633 0.801809
v 0.000000 -1.000000 -0.801809
v 0.000000 -3.475510 -0.801809
v 0.801809 -2.237755 -0.801809
v -0.801809 -2.237755 -0.801809
v 0.000000 -2.237755 -0.801809
v -0.400904 -1.000000 -0.801809
v -0.400904 -3.475510 -0.801809
v 0.801809 -2.856633 -0.801809
v -0.801809 -1.618878 -0.801809
v 0.400904 -1.000000 -0.801809
v 0.400904 -3.475510 -0.801809
v 0.801809 -1.618878 -0.801809
v -0.801809 -2.856633 -0.801809
v 0.000000 -2.856633 -0.801809
v -0.400904 -2.237755 -0.801809
v 0.400904 -2.237755 -0.801809
v 0.400904 -1.618878 -0.801809
v -0.400904 -1.618878 -0.801809
v -0.400904 -2.856633 -0.801809
v 0.400904 -2.856633 -0.801809
v -0.400904 -1.000000 5.865196
v 0.000000 -1.000000 5.865196
v 0.000000 -1.618878 5.865196
v 0.000000 -2.237755 5.865196
v -0.400904 -2.237755 5.865196
v 0.400904 -1.000000 5.865196
v 0.400904 -2.237755 5.865196
v -0.400904 -1.618878 5.865196
v 0.400904 -1.618878 5.865196
v 0.000000 -1.000000 -6.121769
v 0.000000 -1.618878 -6.121769
v 0.000000 -2.237755 -6.121769
v 0.400904 -2.237755 -6.121769
v -0.400904 -1.000000 -6.121769
v -0.400904 -2.237755 -6.121769
v 0.400904 -1.618878 -6.121769
v -0.400904 -1.618878 -6.121769
v -0.327527 -7.475511 1.644328
v 0.000000 -7.475511 1.644328
v 0.000000 -7.475511 1.316801
v 0.327527 -7.475511 0.989274
v 0.000000 -7.475511 0.989274
v 0.327527 -7.475511 1.644328
v -0.327527 -7.475511 0.989274
v -0.327527 -7.475511 1.316801
v 0.327527 -7.475511 1.316801
v 0.000000 -7.475511 -1.655055
v 0.000000 -7.475511 -1.327527
v 0.000000 -7.475511 -1.000000
v 0.327527 -7.475511 -1.000000
v -0.327527 -7.475511 -1.655055
v -0.327527 -7.475511 -1.000000
v 0.327527 -7.475511 -1.327527
v -0.327527 -7.475511 -1.327527
vt 0.375000 0.000000
vt 0.625000 0.000000
vt 0.625000 0.250000
vt 0.375000 0.250000
vt 0.625000 0.500000
vt 0.375000 0.500000
vt 0.625000 0.750000
vt 0.375000 0.750000
vt 0.625000 1.000000
vt 0.375000 1.000000
vt 0.199887 0.725226
vt 0.149774 0.725226
vt 0.149774 0.725226
vt 0.199887 0.725226
vt 0.875000 0.500000
vt 0.875000 0.750000
vt 0.149774 0.524774
vt 0.149774 0.725226
vt 0.125000 0.750000
vt 0.125000 0.500000
vt 0.350226 0.524774
vt 0.300113 0.524774
vt 0.250000 0.524774
vt 0.199887 0.524774
vt 0.350226 0.725226
vt 0.199887 0.725226
vt 0.250000 0.725226
vt 0.300113 0.725226
vt 0.290941 0.665941
vt 0.331882 0.665941
vt 0.331882 0.706882
vt 0.290941 0.706882
vt 0.300113 0.524774
vt 0.350226 0.524774
vt 0.350226 0.524774
vt 0.300113 0.524774
vt 0.350226 0.725226
vt 0.350226 0.725226
vt 0.350226 0.725226
vt 0.350226 0.725226
vt 0.350226 0.524774
vt 0.350226 0.524774
vt 0.149774 0.524774
vt 0.149774 0.524774
vt 0.149774 0.524774
vt 0.149774 0.524774
vt 0.149774 0.725226
vt 0.149774 0.725226
vt 0.168118 0.543118
vt 0.168118 0.584059
vt 0.168118 0.625000
vt 0.168118 0.665941
vt 0.168118 0.706882
vt 0.331882 0.543118
vt 0.290941 0.543118
vt 0.250000 0.543118
vt 0.209059 0.543118
vt 0.199887 0.524774
vt 0.250000 0.524774
vt 0.331882 0.625000
vt 0.331882 0.584059
vt 0.209059 0.706882
vt 0.250000 0.706882
vt 0.300113 0.725226
vt 0.250000 0.725226
vt 0.250000 0.625000
vt 0.290941 0.625000
vt 0.290941 0.625000
vt 0.250000 0.625000
vt 0.250000 0.625000
vt 0.290941 0.625000
vt 0.290941 0.584059
vt 0.250000 0.543118
vt 0.209059 0.543118
vt 0.290941 0.584059
vt 0.209059 0.584059
vt 0.209059 0.625000
vt 0.209059 0.584059
vt 0.209059 0.625000
vt 0.209059 0.665941
vt 0.209059 0.625000
vt 0.209059 0.665941
vt 0.250000 0.706882
vt 0.290941 0.706882
vt 0.290941 0.665941
vt 0.300113 0.725226
vt 0.250000 0.725226
vt 0.199887 0.725226
vt 0.199887 0.725226
vt 0.199887 0.725226
vt 0.199887 0.725226
vt 0.300113 0.725226
vt 0.300113 0.725226
vt 0.300113 0.725226
vt 0.250000 0.725226
vt 0.300113 0.725226
vt 0.300113 0.725226
vt 0.250000 0.725226
vt 0.199887 0.725226
vt 0.199887 0.524774
vt 0.250000 0.524774
vt 0.300113 0.524774
vt 0.250000 0.524774
vt 0.250000 0.524774
vt 0.300113 0.524774
vt 0.300113 0.524774
vt 0.300113 0.524774
vt 0.300113 0.524774
vt 0.250000 0.524774
vt 0.199887 0.524774
vt 0.199887 0.524774
vt 0.199887 0.524774
vt 0.199887 0.524774
vt 0.250000 0.725226
vt 0.250000 0.725226
vt 0.250000 0.524774
vt 0.199887 0.524774
vt 0.250000 0.665941
vt 0.209059 0.706882
vt 0.250000 0.584059
vt 0.290941 0.543118
vn -1.0000 0.0000 0.0000
vn 0.0000 0.0000 -1.0000
vn 1.0000 0.0000 0.0000
vn 0.0000 0.0000 1.0000
vn 0.0000 1.0000 0.0000
vn 0.0000 -1.0000 0.0000
vn 0.0000 -0.2401 -0.9708
vn 0.0000 -0.2425 0.9701
vn 0.0000 0.2425 -0.9701
vn 0.0000 0.2401 0.9708
usemtl None
s off
f 10/1/1 2/2/1 4/3/1 9/4/1
f 9/4/2 4/3/2 8/5/2 11/6/2
f 11/6/3 8/5/3 6/7/3 12/8/3
f 12/8/4 6/7/4 2/9/4 10/10/4
f 61/11/4 48/12/4 18/13/4 51/14/4
f 8/5/5 4/15/5 2/16/5 6/7/5
f 3/17/6 1/18/6 10/19/6 9/20/6
f 7/21/6 71/22/6 62/23/6 67/24/6 3/17/6 9/20/6 11/6/6
f 5/25/6 7/21/6 11/6/6 12/8/6
f 1/18/6 50/26/6 41/27/6 46/28/6 5/25/6 12/8/6 10/19/6
f 40/29/6 32/30/6 16/31/6 29/32/6
f 81/33/2 69/34/2 19/35/2 72/36/2
f 7/21/3 5/25/3 49/37/3 44/38/3 53/39/3 20/40/3 19/35/3 69/34/3 64/41/3 73/42/3
f 1/18/1 3/17/1 70/43/1 65/44/1 74/45/1 17/46/1 18/13/1 48/12/1 43/47/1 52/48/1
f 13/49/6 30/50/6 21/51/6 26/52/6 14/53/6 18/13/6 17/46/6
f 15/54/6 31/55/6 22/56/6 27/57/6 13/49/6 17/46/6 68/58/6 63/59/6 72/36/6 19/35/6
f 16/31/6 32/30/6 23/60/6 28/61/6 15/54/6 19/35/6 20/40/6
f 14/53/6 33/62/6 24/63/6 29/32/6 16/31/6 20/40/6 47/64/6 42/65/6 51/14/6 18/13/6
f 25/66/7 36/67/7 102/68/7 103/69/7
f 36/67/8 25/66/8 110/70/8 111/71/8
f 37/72/6 28/61/6 23/60/6 36/67/6
f 27/57/9 22/56/9 108/73/9 112/74/9
f 37/72/3 36/67/3 111/71/3 114/75/3
f 31/55/6 15/54/6 28/61/6 37/72/6
f 30/50/6 38/76/6 35/77/6 21/51/6
f 13/49/6 27/57/6 38/76/6 30/50/6
f 35/77/1 38/76/1 115/78/1 113/79/1
f 26/52/6 39/80/6 33/62/6 14/53/6
f 21/51/6 35/77/6 39/80/6 26/52/6
f 39/80/1 35/77/1 105/81/1 106/82/1
f 29/32/10 24/63/10 100/83/10 104/84/10
f 36/67/3 40/29/3 107/85/3 102/68/3
f 36/67/6 23/60/6 32/30/6 40/29/6
f 60/86/4 54/87/4 42/65/4 47/64/4
f 50/26/1 58/88/1 89/89/1 82/90/1
f 58/88/4 52/48/4 43/47/4 57/91/4
f 59/92/3 46/28/3 87/93/3 90/94/3
f 45/95/6 56/96/6 88/97/6 85/98/6
f 50/26/4 1/18/4 52/48/4 58/88/4
f 49/37/4 59/92/4 56/96/4 44/38/4
f 5/25/4 46/28/4 59/92/4 49/37/4
f 57/91/6 45/95/6 85/98/6 86/99/6
f 53/39/4 60/86/4 47/64/4 20/40/4
f 44/38/4 56/96/4 60/86/4 53/39/4
f 56/96/4 45/95/4 54/87/4 60/86/4
f 54/87/4 61/11/4 51/14/4 42/65/4
f 45/95/4 57/91/4 61/11/4 54/87/4
f 57/91/4 43/47/4 48/12/4 61/11/4
f 80/100/2 75/101/2 63/59/2 68/58/2
f 77/102/6 66/103/6 93/104/6 94/105/6
f 78/106/2 73/42/2 64/41/2 77/102/2
f 78/106/3 77/102/3 94/105/3 97/107/3
f 62/23/5 71/22/5 55/108/5 91/109/5
f 71/22/2 7/21/2 73/42/2 78/106/2
f 70/43/2 79/110/2 76/111/2 65/44/2
f 3/17/2 67/24/2 79/110/2 70/43/2
f 76/111/1 79/110/1 98/112/1 96/113/1
f 74/45/2 80/100/2 68/58/2 17/46/2
f 65/44/2 76/111/2 80/100/2 74/45/2
f 76/111/2 66/103/2 75/101/2 80/100/2
f 75/101/2 81/33/2 72/36/2 63/59/2
f 66/103/2 77/102/2 81/33/2 75/101/2
f 77/102/2 64/41/2 69/34/2 81/33/2
f 90/94/4 84/114/4 85/98/4 88/97/4
f 84/114/4 89/89/4 86/99/4 85/98/4
f 83/115/4 82/90/4 89/89/4 84/114/4
f 87/93/4 83/115/4 84/114/4 90/94/4
f 46/28/5 41/27/5 83/115/5 87/93/5
f 56/96/3 59/92/3 90/94/3 88/97/3
f 41/27/5 50/26/5 82/90/5 83/115/5
f 58/88/1 57/91/1 86/99/1 89/89/1
f 98/112/2 92/116/2 93/104/2 96/113/2
f 92/116/2 97/107/2 94/105/2 93/104/2
f 91/109/2 55/108/2 97/107/2 92/116/2
f 95/117/2 91/109/2 92/116/2 98/112/2
f 66/103/6 76/111/6 96/113/6 93/104/6
f 79/110/1 67/24/1 95/117/1 98/112/1
f 71/22/3 78/106/3 97/107/3 55/108/3
f 67/24/5 62/23/5 91/109/5 95/117/5
f 106/82/6 101/118/6 100/83/6 99/119/6
f 105/81/6 103/69/6 101/118/6 106/82/6
f 101/118/6 107/85/6 104/84/6 100/83/6
f 103/69/6 102/68/6 107/85/6 101/118/6
f 35/77/7 25/66/7 103/69/7 105/81/7
f 24/63/10 33/62/10 99/119/10 100/83/10
f 40/29/3 29/32/3 104/84/3 107/85/3
f 33/62/1 39/80/1 106/82/1 99/119/1
f 115/78/6 109/120/6 110/70/6 113/79/6
f 109/120/6 114/75/6 111/71/6 110/70/6
f 108/73/6 34/121/6 114/75/6 109/120/6
f 112/74/6 108/73/6 109/120/6 115/78/6
f 25/66/8 35/77/8 113/79/8 110/70/8
f 38/76/1 27/57/1 112/74/1 115/78/1
f 22/56/9 31/55/9 34/121/9 108/73/9
f 31/55/3 37/72/3 114/75/3 34/121/3
